PathFileType	4	(X/Y/Z)	D:\TRACE\spotREDO_2-26-24\spot_justArm_Motion_1_2-platform.trc
DataRate	CameraRate	NumFrames	NumMarkers	Units	OrigDataRate	OrigDataStartFrame	OrigNumFrames
100.00	100.00	      24	5	mm	100.00	2626	      7000
Frame#	Time	Left_Front			Right_Front			Left_Aft			Right_Aft			Post			
		X1	Y1	Z1	X2	Y2	Z2	X3	Y3	Z3	X4	Y4	Z4	X5	Y5	Z5	

2626	26.250	-706.68036	-27.03341	-581.06482	707.93384	-15.22176	-496.92300	-778.04272	28.74570	636.67981	791.41064	35.02773	641.06592	3.12327	583.73999	-1011.83936	
2627	26.260	-707.56445	-26.84728	-581.06464	707.08447	-14.93303	-496.89890	-779.05811	28.47914	636.87555	790.44568	34.65033	640.90717	2.20806	584.16235	-1011.71515	
2628	26.270	-708.49298	-26.61816	-580.97296	706.20221	-14.88330	-496.78317	-779.97137	28.34315	636.89551	789.49628	34.50472	641.07672	0.88072	584.52527	-1011.18884	
2629	26.280	-709.47247	-26.52130	-580.88965	705.14484	-14.67040	-496.62930	-781.02588	28.01497	636.87775	788.28607	34.43593	641.34833	-0.01151	584.74139	-1010.88885	
2630	26.290	-710.55396	-26.38125	-580.86713	704.26404	-14.39327	-496.81326	-781.92639	27.75047	637.09015	787.36127	34.00201	641.44281	-1.11109	585.10956	-1010.67236	
2631	26.300	-711.34845	-26.03034	-580.76331	703.12238	-14.13159	-496.71536	-782.86035	27.68526	637.02423	786.46857	33.81164	641.48383	-2.13164	585.66803	-1010.18469	
2632	26.310	-712.21484	-25.80158	-580.83020	702.28668	-14.03060	-496.61319	-783.62653	27.68256	637.31189	785.66864	33.69304	641.55505	-3.03736	586.11285	-1010.20483	
2633	26.320	-713.47632	-25.40928	-580.64301	701.33411	-14.00205	-496.58902	-784.74457	26.94904	637.27814	784.68970	33.20290	641.52185	-3.57870	586.34058	-1009.88556	
2634	26.330	-714.36505	-25.34713	-580.59363	700.13147	-13.82069	-496.55753	-785.49805	26.73220	637.44891	783.79816	32.89111	641.38513	-4.79333	586.59106	-1009.70447	
2635	26.340	-715.17053	-25.25279	-580.62793	699.44073	-13.57792	-496.32626	-786.61432	26.44479	637.45398	782.42761	32.85863	641.42902	-5.89890	587.13861	-1009.59808	
2636	26.350	-716.08722	-24.97706	-580.53766	698.55731	-13.40874	-496.21603	-787.55969	26.41861	637.48663	781.86353	32.54325	641.43127	-6.52269	587.62378	-1009.50989	
2637	26.360	-717.15283	-24.61199	-580.56323	697.60376	-13.11023	-496.17297	-788.29694	25.73411	637.63062	780.84222	32.15256	641.78302	-7.52144	588.11127	-1009.30994	
2638	26.370	-718.13568	-24.20619	-580.48663	696.81470	-12.85555	-496.08334	-789.23645	25.53258	637.56598	779.99243	31.62883	641.88477	-8.05832	588.45337	-1008.62769	
2639	26.380	-718.84546	-23.96328	-580.50653	695.73309	-12.71107	-496.12341	-790.28632	25.34106	637.70703	779.15027	31.28190	641.64484	-8.96767	588.81445	-1008.34454	
2640	26.390	-720.03394	-23.77678	-580.50806	694.75409	-12.26405	-496.20801	-791.30371	25.09059	637.90985	778.08612	31.17171	641.72266	-10.36028	589.59723	-1007.92499	
2641	26.400	-720.64087	-23.65046	-580.25165	693.70551	-11.93261	-496.18115	-792.26990	24.67222	637.85901	777.33832	31.06190	642.09912	-11.19298	590.06244	-1007.46381	
2642	26.410	-721.74243	-23.27468	-580.27112	693.03479	-11.83193	-495.96075	-792.95447	24.32044	637.95868	776.11957	30.69944	642.28815	-12.12276	590.60858	-1007.01367	
2643	26.420	-722.64294	-22.77379	-580.25916	692.32324	-11.46184	-496.05457	-793.80225	24.09982	638.07172	775.17542	30.43993	642.28815	-13.05697	591.29169	-1006.35333	
2644	26.430	-723.44885	-22.49778	-580.16113	691.01331	-11.05805	-495.83151	-794.81580	23.76375	638.05554	774.65747	30.32558	642.37708	-13.69112	591.86365	-1005.93463	
2645	26.440	-724.26013	-22.12170	-579.93939	690.37213	-11.19039	-495.64615	-795.60699	23.54017	638.30981	773.67047	29.94972	642.60297	-14.71194	592.19104	-1005.33368	
2646	26.450	-725.10162	-21.95785	-579.94409	689.51843	-11.01929	-495.76761	-796.59894	23.07036	638.36285	772.65875	29.31089	642.57776	-15.70047	592.79883	-1005.10803	
2647	26.460	-726.09467	-21.67632	-579.90588	688.37952	-10.65627	-495.48975	-797.37891	22.78183	638.69324	771.75598	29.03347	642.70404	-16.58118	593.42291	-1004.92505	
2648	26.470	-727.16534	-21.04815	-579.67151	687.65594	-10.52711	-495.50278	-798.16351	22.56536	638.65643	771.25439	28.92485	642.84296	-17.35299	593.82501	-1004.59479	
2649	26.480	-727.89270	-21.01896	-579.76904	686.84137	-10.01280	-495.50000	-799.15729	22.22142	638.71283	770.23724	28.42013	642.95575	-18.19423	594.23779	-1004.29572	
